<svg id="Calque_1" data-name="Calque 1" xmlns="http://www.w3.org/2000/svg" viewBox="0 0 1246 580"><defs><style>.cls-1{fill:#f9e423;}.cls-2{fill:#ffbd03;}.cls-3{fill:#2e2b32;}.cls-4{fill:#444243;}.cls-5{fill:#eae1df;}.cls-6{fill:#43adef;}.cls-7{fill:#f43b3b;}</style></defs><title>bus</title><path id="corps-bus" class="cls-1" d="M69.21,537.5V170S77,112,127,112H797s28,0,56-18H977s14,0,15,16c2,17,8,66,8,66V325h173s71,8,70,86c4,2,3,1,3,1a17.11,17.11,0,0,1,9,8c1,7,4,53,4,53l5,67h-32Z" transform="translate(-52 -94)"/><path id="haut-bus-orange" class="cls-2" d="M1000,189V176s-6-49-8-66c-1-16-15-16-15-16H853c-28,18-56,18-56,18H127c-50,0-57.79,58-57.79,58v19Z" transform="translate(-52 -94)"/><g id="jantes"><path id="jante-bas" class="cls-3" d="M52,544s1-5,6-6H1292s6,3,6,9v12s-2,6-6,6S59,560,59,560s-6-1-7-7Z" transform="translate(-52 -94)"/><path id="jante-arriere" class="cls-3" d="M269.13,540S297,444,394,444s125,95,125,95l-29,1c-12.12-43.81-51.35-74.7-96-76-46.78-1.36-89.25,30.05-102,76Z" transform="translate(-52 -94)"/><path id="jante-avant" class="cls-3" d="M977,541c2.48-10.45,12.34-46.29,47-73,4.15-3.2,34.8-26.4,77-27,1.31,0,3.17,0,5.47,0,38.5.88,66.43,20.53,72.53,25,37.43,27.29,47.67,66.77,50,77l-28,1a101.26,101.26,0,0,0-195-4Z" transform="translate(-52 -94)"/></g><g id="roue-arriere"><circle class="cls-4" cx="340.5" cy="471.5" r="103.5"/><path class="cls-5" d="M392.5,497A67.5,67.5,0,1,0,460,564.5,67.5,67.5,0,0,0,392.5,497ZM392,618a54,54,0,1,1,54-54A54,54,0,0,1,392,618Z" transform="translate(-52 -94)"/><circle class="cls-5" cx="340.5" cy="471.5" r="42.5"/><circle class="cls-4" cx="340" cy="471" r="20"/><circle class="cls-4" cx="318" cy="450" r="5"/><circle class="cls-4" cx="341" cy="440" r="5"/><circle class="cls-4" cx="361" cy="449" r="5"/><circle class="cls-4" cx="371" cy="471" r="5"/><circle class="cls-4" cx="363" cy="492" r="5"/><circle class="cls-4" cx="341" cy="502" r="5"/><circle class="cls-4" cx="320" cy="494" r="5"/><circle class="cls-4" cx="310" cy="471" r="5"/></g><g id="roue-avant"><circle class="cls-4" cx="1051.5" cy="476.5" r="103.5"/><path class="cls-5" d="M1103.5,502a67.5,67.5,0,1,0,67.5,67.5A67.5,67.5,0,0,0,1103.5,502Zm-.5,121a54,54,0,1,1,54-54A54,54,0,0,1,1103,623Z" transform="translate(-52 -94)"/><circle class="cls-5" cx="1051.5" cy="476.5" r="42.5"/><circle class="cls-4" cx="1051" cy="476" r="20"/><circle class="cls-4" cx="1029" cy="455" r="5"/><circle class="cls-4" cx="1052" cy="445" r="5"/><circle class="cls-4" cx="1072" cy="454" r="5"/><circle class="cls-4" cx="1082" cy="476" r="5"/><circle class="cls-4" cx="1074" cy="497" r="5"/><circle class="cls-4" cx="1052" cy="507" r="5"/><circle class="cls-4" cx="1031" cy="499" r="5"/><circle class="cls-4" cx="1021" cy="476" r="5"/></g><g id="fenetres"><path id="fenetre-5" class="cls-6" d="M139,217s4-14,17-14H279s14,4,14,14v89s-3,13-14,13H150s-11-4-11-12Z" transform="translate(-52 -94)"/><path id="fenetre-4" class="cls-6" d="M331,217s4-14,17-14H471s14,4,14,14v89s-3,13-14,13H342s-11-4-11-12Z" transform="translate(-52 -94)"/><path id="fenetre-3" class="cls-6" d="M521,217s4-14,17-14H661s14,4,14,14v89s-3,13-14,13H532s-11-4-11-12Z" transform="translate(-52 -94)"/><path id="fenetre-2" class="cls-6" d="M714,217s4-14,17-14H854s14,4,14,14v89s-3,13-14,13H725s-11-4-11-12Z" transform="translate(-52 -94)"/><path id="fenetre-1" class="cls-6" d="M917,203c-13,0-17,14-17,14v90c0,8,11,12,11,12h89V203Z" transform="translate(-52 -94)"/></g><g id="tuning-traits"><rect id="trait-2" class="cls-3" x="17" y="265" width="931" height="20"/><rect id="trait-1" class="cls-3" x="17" y="319" width="931" height="20"/></g><g id="phares"><circle id="phare-bas" class="cls-7" cx="47.5" cy="408.5" r="16.5"/><circle id="phare-haut-droit" class="cls-7" cx="914" cy="70" r="11"/><circle id="phare-haut-gauche" class="cls-7" cx="44" cy="70" r="11"/></g><path id="coque-orange-bus" class="cls-2" d="M1000,412h245.16c-.47-.19-1.16-.5-2.16-1,1-78-70-86-70-86H1000Z" transform="translate(-52 -94)"/></svg>