<svg id="Calque_1" data-name="Calque 1" xmlns="http://www.w3.org/2000/svg" viewBox="0 0 124.56 572"><defs><style>.cls-1{fill:#eaeaea;}</style></defs><title>colonne-vertebrale</title><path class="cls-1" d="M609,112l5-7-1-1a2.05,2.05,0,0,1,3-2l1,1s1,1,2-1V99l2,2h7s7-1,8-3c0,2-1,3,0,6a7.74,7.74,0,0,1,1,3s1,3-5,5h-8s-1-4-4-2a1.91,1.91,0,0,0-1,1.24c-.17,1.18,1.76,1.68,2.08,3.57A1.87,1.87,0,0,1,621,116a2.17,2.17,0,0,1-1.06,1,4,4,0,0,1-2.94,0c-2-2-3-2-3-2s-2,0-6,2c-1-1-2-2-1-4Z" transform="translate(-579.57 -98)"/><path class="cls-1" d="M606.92,137.25l5.19-8.8-1.29-1.08s-.31-3.55,3.35-2.68l1.28,1.08s1.29,1.08,2.27-1.39l-.31-3.55L620,123l8.28-.72s8.18-1.91,9.16-4.38c.21,2.36-.87,3.65.62,7.1a9.29,9.29,0,0,1,1.5,3.44s1.49,3.45-5.4,6.44l-9.47.83s-1.6-4.63-4.94-1.95a2.22,2.22,0,0,0-1,1.56c-.07,1.42,2.26,1.81,2.83,4a2.34,2.34,0,0,1,0,1.42,2.49,2.49,0,0,1-1.17,1.24,4.64,4.64,0,0,1-3.46.36c-2.58-2.16-3.76-2.05-3.76-2.05s-2.37.2-6.89,3c-1.29-1.08-2.58-2.15-1.6-4.63Z" transform="translate(-579.57 -98)"/><path class="cls-1" d="M613.47,162.61l4.47-10.82-1.64-1s-.92-4,3.36-3.58l1.64,1s1.63,1,2.34-1.94l-.93-4,3.27,2,9.27-2.15s9-3.48,9.68-6.44c.61,2.65-.4,4.28,1.85,7.95a10.37,10.37,0,0,1,2.24,3.67s2.25,3.66-5.08,8.16L633.34,158s-2.56-5-5.92-1.42a2.55,2.55,0,0,0-.89,1.94c.14,1.62,2.85,1.69,3.85,4.08a2.59,2.59,0,0,1,.21,1.62,2.9,2.9,0,0,1-1.11,1.59,5.41,5.41,0,0,1-3.88,1c-3.26-2-4.59-1.73-4.59-1.73s-2.65.62-7.33,4.5c-1.63-1-3.27-2-2.56-5Z" transform="translate(-579.57 -98)"/><path class="cls-1" d="M623.86,190.35l3.78-12.63-1.94-1s-1.49-4.35,3.36-4.38l1.94,1s2,1,2.41-2.44l-1.49-4.35,3.89,1.91L646,165s9.65-4.91,10.11-8.31c1,2.9,0,4.85,3,8.7a12,12,0,0,1,2.94,3.86s2.93,3.85-4.78,9.72l-11.6,4s-3.43-5.3-6.79-.92a2.87,2.87,0,0,0-.78,2.27c.34,1.8,3.38,1.57,4.78,4.15a3,3,0,0,1,.42,1.79,3.22,3.22,0,0,1-1.07,1.9,6.1,6.1,0,0,1-4.24,1.53c-3.89-1.91-5.34-1.42-5.34-1.42s-2.9,1-7.71,5.87c-1.94-1-3.89-1.91-3.43-5.3Z" transform="translate(-579.57 -98)"/><path class="cls-1" d="M634.55,214.44l5.17-12.13-1.83-1.16s-1-4.49,3.83-4l1.82,1.17s1.83,1.17,2.66-2.16l-1-4.49,3.66,2.33,10.47-2.31s10.14-3.81,11-7.14c.67,3-.5,4.82,2,9a11.81,11.81,0,0,1,2.49,4.16s2.49,4.16-5.83,9.13l-12,2.65s-2.82-5.65-6.64-1.67a2.87,2.87,0,0,0-1,2.17c.14,1.82,3.19,1.94,4.29,4.65a3,3,0,0,1,.22,1.83,3.23,3.23,0,0,1-1.28,1.77,6,6,0,0,1-4.38,1.05c-3.65-2.33-5.15-2-5.15-2s-3,.66-8.31,5c-1.83-1.16-3.65-2.33-2.82-5.65Z" transform="translate(-579.57 -98)"/><path class="cls-1" d="M643.24,238.91,650,227.6l-1.65-1.4s-.37-4.58,4.34-3.42l1.65,1.4s1.65,1.41,2.93-1.77l-.37-4.58,3.3,2.81,10.69-.86s10.57-2.39,11.85-5.56c.25,3.05-1.16,4.7.74,9.16a11.81,11.81,0,0,1,1.89,4.46s1.9,4.46-7,8.25l-12.22,1s-2-6-6.35-2.57a2.91,2.91,0,0,0-1.32,2c-.11,1.83,2.9,2.36,3.61,5.2a3,3,0,0,1,0,1.84,3.22,3.22,0,0,1-1.51,1.58,6,6,0,0,1-4.48.43c-3.3-2.81-4.83-2.68-4.83-2.68s-3,.24-8.91,3.79c-1.65-1.41-3.3-2.81-2-6Z" transform="translate(-579.57 -98)"/><path class="cls-1" d="M648.13,264.61l8.57-10-1.39-1.66s.4-4.58,4.85-2.65l1.39,1.66s1.39,1.66,3.19-1.26l.4-4.58,2.79,3.32,10.68.94s10.82-.59,12.61-3.5c-.26,3-1.93,4.44-.8,9.15a11.77,11.77,0,0,1,1.12,4.72s1.13,4.71-8.3,7L671,266.62s-1-6.24-5.84-3.59a2.86,2.86,0,0,0-1.63,1.77c-.42,1.78,2.46,2.8,2.69,5.72a2.94,2.94,0,0,1-.34,1.81,3.21,3.21,0,0,1-1.75,1.3,6,6,0,0,1-4.49-.31c-2.78-3.33-4.31-3.46-4.31-3.46s-3.05-.27-9.43,2.25c-1.39-1.66-2.78-3.32-1-6.24Z" transform="translate(-579.57 -98)"/><path class="cls-1" d="M644.65,288.47,656.11,282l-.74-2s1.93-4.17,5.46-.85l.74,2s.75,2,3.43-.11l1.93-4.17,1.49,4.07,9.73,4.51s10.38,3.12,13.06,1c-1.29,2.78-3.33,3.52-3.87,8.34a11.92,11.92,0,0,1-.54,4.81s-.54,4.82-10.17,3.73l-11.13-5.15s1.19-6.21-4.27-5.36a2.9,2.9,0,0,0-2.13,1.11c-1,1.53,1.36,3.47.59,6.29a3,3,0,0,1-.93,1.59,3.24,3.24,0,0,1-2.1.63,6,6,0,0,1-4.11-1.82c-1.49-4.07-2.88-4.71-2.88-4.71s-2.78-1.29-9.63-1.09c-.75-2-1.49-4.07,1.19-6.2Z" transform="translate(-579.57 -98)"/><path class="cls-1" d="M625.54,317.42l14.7-6.25-.62-2.55s2.9-4.76,6.69-.27l.62,2.55s.61,2.55,4.13.35l2.9-4.75,1.24,5.1,11.09,6.78s12.05,5.19,15.57,3c-1.93,3.16-4.49,3.78-5.8,9.5-.35,4.14-1.32,5.72-1.32,5.72s-1.32,5.72-12.76,3.08l-12.67-7.74s2.28-7.3-4.41-7a3.48,3.48,0,0,0-2.71,1c-1.41,1.71,1.16,4.37-.16,7.66a3.6,3.6,0,0,1-1.35,1.78,3.86,3.86,0,0,1-2.6.47,7.3,7.3,0,0,1-4.7-2.76c-1.23-5.1-2.82-6.07-2.82-6.07s-3.17-1.94-11.44-2.64c-.61-2.55-1.23-5.1,2.29-7.3Z" transform="translate(-579.57 -98)"/><path class="cls-1" d="M611.54,349.42l14.7-6.25-.62-2.55s2.9-4.76,6.69-.27l.62,2.55s.61,2.55,4.13.35l2.9-4.75,1.24,5.1,11.09,6.78s12.05,5.19,15.57,3c-1.93,3.16-4.49,3.78-5.8,9.5-.35,4.14-1.32,5.72-1.32,5.72s-1.32,5.72-12.76,3.08l-12.67-7.74s2.28-7.3-4.41-7a3.48,3.48,0,0,0-2.71,1c-1.41,1.71,1.16,4.37-.16,7.66a3.6,3.6,0,0,1-1.35,1.78,3.86,3.86,0,0,1-2.6.47,7.3,7.3,0,0,1-4.7-2.76c-1.23-5.1-2.82-6.07-2.82-6.07s-3.17-1.94-11.44-2.64c-.61-2.55-1.23-5.1,2.29-7.3Z" transform="translate(-579.57 -98)"/><path class="cls-1" d="M599.23,385.07l14.25-7.22-.79-2.5s2.58-4.94,6.66-.72l.78,2.51s.79,2.5,4.15.07l2.58-4.93,1.57,5,11.52,6s12.37,4.37,15.74,1.94c-1.72,3.29-4.23,4.08-5.16,9.87-.08,4.15-.94,5.8-.94,5.8s-.93,5.79-12.52,3.92L623.91,398s1.79-7.45-4.86-6.73a3.49,3.49,0,0,0-2.65,1.21c-1.29,1.8,1.45,4.28.36,7.65a3.65,3.65,0,0,1-1.23,1.87,3.89,3.89,0,0,1-2.57.64,7.29,7.29,0,0,1-4.87-2.44c-1.57-5-3.21-5.87-3.21-5.87s-3.29-1.72-11.59-1.87c-.79-2.5-1.57-5,1.79-7.44Z" transform="translate(-579.57 -98)"/><path class="cls-1" d="M588.94,423.89l13-9.3-1.16-2.35s1.8-5.27,6.47-1.72l1.16,2.36s1.15,2.36,4.11-.56l1.8-5.27,2.31,4.71,12.3,4.2s12.9,2.44,15.85-.48c-1.2,3.52-3.55,4.68-3.59,10.55.55,4.11,0,5.87,0,5.87s0,5.87-11.79,5.78l-14.05-4.79s.64-7.63-5.83-5.92a3.55,3.55,0,0,0-2.43,1.61c-1,2,2.09,4,1.52,7.51a3.62,3.62,0,0,1-.93,2,4,4,0,0,1-2.44,1,7.3,7.3,0,0,1-5.19-1.68c-2.31-4.71-4.07-5.31-4.07-5.31s-3.51-1.2-11.74-.08c-1.15-2.36-2.31-4.71.64-7.63Z" transform="translate(-579.57 -98)"/><path class="cls-1" d="M585.08,461.58,597,451l-1.4-2.22s1.22-5.43,6.25-2.4l1.4,2.22s1.4,2.22,4-1l1.22-5.44,2.81,4.44L624,449.42s13.08,1,15.71-2.17c-.82,3.62-3,5-2.45,10.87,1,4,.58,5.84.58,5.84s.59,5.84-11.09,7l-14.49-3.26s-.18-7.66-6.42-5.26a3.53,3.53,0,0,0-2.25,1.85c-.78,2.07,2.5,3.77,2.31,7.31a3.6,3.6,0,0,1-.7,2.12,3.9,3.9,0,0,1-2.32,1.28,7.26,7.26,0,0,1-5.33-1.11c-2.81-4.43-4.62-4.84-4.62-4.84s-3.62-.82-11.68,1.17c-1.4-2.22-2.81-4.44-.18-7.65Z" transform="translate(-579.57 -98)"/><path class="cls-1" d="M598.45,500.86l7.81-10-1.41-1.53s.18-4.43,4.55-2.77l1.41,1.54s1.42,1.53,3-1.36l.18-4.43,2.83,3.08,10.33.43s10.4-1.05,12-3.94c-.12,2.95-1.66,4.37-.37,8.86a11.46,11.46,0,0,1,1.29,4.49s1.29,4.49-7.69,7.07l-11.8-.49s-1.24-6-5.79-3.2a2.83,2.83,0,0,0-1.49,1.77c-.32,1.74,2.5,2.59,2.85,5.4a2.82,2.82,0,0,1-.25,1.75,3.07,3.07,0,0,1-1.63,1.34,5.79,5.79,0,0,1-4.33-.11c-2.83-3.07-4.31-3.13-4.31-3.13s-2.95-.13-9,2.58c-1.42-1.54-2.83-3.07-1.23-6Z" transform="translate(-579.57 -98)"/><path class="cls-1" d="M605.44,535.86l5.88-12.09-1.8-1.28s-.78-4.62,4.11-3.86l1.8,1.28s1.8,1.28,2.82-2.06l-.78-4.62,3.6,2.56L631.85,514s10.53-3.37,11.55-6.71c.52,3.08-.76,4.89,1.56,9.25a12.09,12.09,0,0,1,2.32,4.36s2.32,4.36-6.4,9L628.55,532s-2.58-5.9-6.68-2a3,3,0,0,0-1.16,2.16c0,1.86,3.15,2.13,4.13,5a3,3,0,0,1,.13,1.87,3.34,3.34,0,0,1-1.39,1.74,6.2,6.2,0,0,1-4.51.84c-3.6-2.56-5.14-2.3-5.14-2.3s-3.09.52-8.73,4.64c-1.8-1.28-3.6-2.56-2.58-5.9Z" transform="translate(-579.57 -98)"/><path class="cls-1" d="M617.17,559.86l5.21-10.7L620.79,548s-.69-4.09,3.63-3.42l1.59,1.13s1.59,1.14,2.5-1.82l-.69-4.09,3.19,2.26,9.54-1.61s9.32-3,10.22-5.93c.46,2.73-.67,4.32,1.38,8.18a10.7,10.7,0,0,1,2.06,3.86s2,3.86-5.67,8l-10.91,1.84s-2.29-5.22-5.92-1.8a2.63,2.63,0,0,0-1,1.91c0,1.65,2.79,1.89,3.66,4.38a2.66,2.66,0,0,1,.11,1.66,2.92,2.92,0,0,1-1.23,1.54,5.5,5.5,0,0,1-4,.75c-3.18-2.27-4.55-2-4.55-2s-2.72.46-7.72,4.11c-1.59-1.14-3.19-2.27-2.28-5.23Z" transform="translate(-579.57 -98)"/><path class="cls-1" d="M631.45,585.3,635,574.48l-1.66-.88s-1.17-3.79,3-3.7l1.66.87s1.65.88,2.14-2L639,564.93l3.31,1.74,8.86-2.74s8.47-4,9-6.93c.78,2.53-.1,4.19,2.35,7.6a10.46,10.46,0,0,1,2.44,3.4s2.44,3.41-4.37,8.29l-10.13,3.13s-2.83-4.67-5.85-1a2.48,2.48,0,0,0-.72,1.94c.25,1.56,2.88,1.44,4,3.7a2.5,2.5,0,0,1,.32,1.56,2.73,2.73,0,0,1-1,1.62,5.21,5.21,0,0,1-3.69,1.21c-3.32-1.75-4.58-1.35-4.58-1.35s-2.53.78-6.81,4.88c-1.66-.88-3.32-1.75-2.83-4.67Z" transform="translate(-579.57 -98)"/><path class="cls-1" d="M646.33,605.24l3.14-9.48L648,595a2.39,2.39,0,0,1,2.64-3.25l1.45.76s1.46.77,1.88-1.79l-1-3.33,2.9,1.53,7.77-2.4s7.41-3.51,7.84-6.07c.68,2.22-.08,3.67,2.06,6.65a9,9,0,0,1,2.13,3s2.14,3-3.82,7.26L663,600.09s-2.49-4.09-5.13-.84a2.2,2.2,0,0,0-.64,1.7c.22,1.37,2.53,1.26,3.53,3.24a2.25,2.25,0,0,1,.28,1.37,2.47,2.47,0,0,1-.85,1.42,4.57,4.57,0,0,1-3.24,1.06c-2.91-1.53-4-1.19-4-1.19s-2.22.69-6,4.28c-1.45-.77-2.91-1.53-2.48-4.09Z" transform="translate(-579.57 -98)"/><path class="cls-1" d="M662.19,622.32l2.64-8-1.22-.64a2,2,0,0,1,2.21-2.72l1.22.64s1.22.64,1.57-1.5l-.86-2.79,2.43,1.28,6.51-2s6.22-3,6.57-5.09c.58,1.86-.07,3.07,1.73,5.58a7.58,7.58,0,0,1,1.79,2.5s1.79,2.5-3.21,6.08l-7.44,2.3s-2.08-3.43-4.29-.7a1.79,1.79,0,0,0-.53,1.42c.18,1.15,2.11,1.06,3,2.72a2,2,0,0,1,.24,1.14,2,2,0,0,1-.72,1.19,3.85,3.85,0,0,1-2.71.9c-2.44-1.29-3.37-1-3.37-1s-1.86.57-5,3.58c-1.22-.64-2.43-1.28-2.08-3.43Z" transform="translate(-579.57 -98)"/><path class="cls-1" d="M676,626s3-10,11-8c2,2,0,2,3,3l3-3a3.49,3.49,0,0,1,2,1s1,3,2,4h2c1,0,1,2,1,2v5s3,3,4,2v5s-2,4-3,4,4,3,3,4c-1,2-2,4-3,4-1,1-1,5-1,5s0,9-11,16c2-6,8-14,5-20,0,0-5-5-4-7-2,0-8-4-8-6v-7S676,628,676,626Z" transform="translate(-579.57 -98)"/></svg>