<svg id="Calque_2" data-name="Calque 2" xmlns="http://www.w3.org/2000/svg" viewBox="0 0 450 616"><defs><style>.cls-1{fill:#fc802d;}.cls-2{fill:#fcb259;}.cls-3{fill:#f95130;}.cls-4{fill:#f97243;}.cls-5{fill:#f73131;}.cls-6{fill:#f96862;}</style></defs><title>explosion-accident</title><path class="cls-1" d="M941,21l-30,96L813,53l49,117L748,202l123,18-50,63,90-39,30,112,20-112,66,43-9-67,121-63H997l21-74-59,44Z" transform="translate(-748 -21)"/><path class="cls-2" d="M938.68,66.58l-21.87,70L845.38,89.9l35.71,85.28L798,198.51l89.65,13.12-36.44,45.92,65.6-28.43,21.87,81.64,14.58-81.64,48.1,31.34-6.56-48.83,88.2-45.92H979.5l15.3-53.94-43,32.07Q945.23,105.2,938.68,66.58Z" transform="translate(-748 -21)"/><path class="cls-3" d="M1072.7,311l-19,60.75-62-40.5,31,74-72.14,20.25,77.84,11.39L996.76,476.8l57-24.68,19,70.88,12.66-70.88,41.76,27.21-5.69-42.4L1198,397.07h-89.86l13.29-46.83-37.34,27.84Q1078.39,344.54,1072.7,311Z" transform="translate(-748 -21)"/><path class="cls-4" d="M1071.23,339.84l-13.84,44.28-45.2-29.52,22.6,54L982.2,423.33l56.74,8.31q-11.54,14.52-23.06,29.06l41.51-18,13.84,51.66,9.22-51.66,30.45,19.83-4.15-30.9,55.81-29.06h-65.5l9.69-34.14-27.22,20.3Q1075.38,364.29,1071.23,339.84Z" transform="translate(-748 -21)"/><path class="cls-5" d="M956.51,504.2l-11.89,38.06-38.85-25.38,19.42,46.39L880,576l48.76,7.14-19.82,25,35.68-15.46L956.51,637l7.93-44.4,26.16,17L987,583.09l48-25H978.71q4.15-14.67,8.32-29.33l-23.39,17.44Q960.09,525.21,956.51,504.2Z" transform="translate(-748 -21)"/><path class="cls-6" d="M955.59,522.27,946.92,550l-28.32-18.5,14.16,33.81-32.94,9.25,35.54,5.2q-7.22,9.11-14.45,18.2l26-11.27,8.67,32.36,5.78-32.36,19.07,12.43-2.6-19.36,35-18.21h-41l6.07-21.38L960.79,552.9Z" transform="translate(-748 -21)"/></svg>