<svg id="Calque_1" data-name="Calque 1" xmlns="http://www.w3.org/2000/svg" viewBox="0 0 152.03 111.49"><defs><style>.cls-1{fill:#a00a23;}.cls-2{fill:#bf1035;}</style></defs><title>gouttes-sang</title><path class="cls-1" d="M578.05,194.83s-15.39,16.79-12.74,25.65a13.39,13.39,0,0,0,5.28,7.62,13.15,13.15,0,0,0,6.06,2.18A12.06,12.06,0,0,0,590,217.84a41.54,41.54,0,0,0-3.11-10.26A42.26,42.26,0,0,0,578.05,194.83Z" transform="translate(-565 -194.83)"/><path class="cls-2" d="M574.94,201.83s-8.86,11.66-7.92,15.54,4.5,8.09,4.5,8.09S576.5,206,574.94,201.83Z" transform="translate(-565 -194.83)"/><path class="cls-1" d="M625.05,235.83s-15.39,16.79-12.74,25.65a13.39,13.39,0,0,0,5.28,7.62,13.15,13.15,0,0,0,6.06,2.18A12.06,12.06,0,0,0,637,258.84a41.54,41.54,0,0,0-3.11-10.26A42.26,42.26,0,0,0,625.05,235.83Z" transform="translate(-565 -194.83)"/><path class="cls-2" d="M621.94,242.83s-8.86,11.66-7.92,15.54,4.5,8.09,4.5,8.09S623.5,247,621.94,242.83Z" transform="translate(-565 -194.83)"/><path class="cls-1" d="M705.05,266.83s-15.39,16.79-12.74,25.65a13.39,13.39,0,0,0,5.28,7.62,13.15,13.15,0,0,0,6.06,2.18A12.06,12.06,0,0,0,717,289.84a41.54,41.54,0,0,0-3.11-10.26A42.26,42.26,0,0,0,705.05,266.83Z" transform="translate(-565 -194.83)"/><path class="cls-2" d="M701.94,273.83s-8.86,11.66-7.92,15.54,4.5,8.09,4.5,8.09S703.5,278,701.94,273.83Z" transform="translate(-565 -194.83)"/><path class="cls-1" d="M580.05,248.83s-15.39,16.79-12.74,25.65a13.39,13.39,0,0,0,5.28,7.62,13.15,13.15,0,0,0,6.06,2.18A12.06,12.06,0,0,0,592,271.84a41.54,41.54,0,0,0-3.11-10.26A42.26,42.26,0,0,0,580.05,248.83Z" transform="translate(-565 -194.83)"/><path class="cls-2" d="M576.94,255.83s-8.86,11.66-7.92,15.54,4.5,8.09,4.5,8.09S578.5,260,576.94,255.83Z" transform="translate(-565 -194.83)"/><path class="cls-1" d="M652.05,200.83s-15.39,16.79-12.74,25.65a13.39,13.39,0,0,0,5.28,7.62,13.15,13.15,0,0,0,6.06,2.18A12.06,12.06,0,0,0,664,223.84a41.54,41.54,0,0,0-3.11-10.26A42.26,42.26,0,0,0,652.05,200.83Z" transform="translate(-565 -194.83)"/><path class="cls-2" d="M648.94,207.83s-8.86,11.66-7.92,15.54,4.5,8.09,4.5,8.09S650.5,212,648.94,207.83Z" transform="translate(-565 -194.83)"/><path class="cls-1" d="M665.05,270.83s-15.39,16.79-12.74,25.65a13.39,13.39,0,0,0,5.28,7.62,13.15,13.15,0,0,0,6.06,2.18A12.06,12.06,0,0,0,677,293.84a41.54,41.54,0,0,0-3.11-10.26A42.26,42.26,0,0,0,665.05,270.83Z" transform="translate(-565 -194.83)"/><path class="cls-2" d="M661.94,277.83s-8.86,11.66-7.92,15.54,4.5,8.09,4.5,8.09S663.5,282,661.94,277.83Z" transform="translate(-565 -194.83)"/></svg>