<svg id="Calque_1" data-name="Calque 1" xmlns="http://www.w3.org/2000/svg" viewBox="0 0 1000 676"><defs><style>.cls-1{fill:#f7a34f;}.cls-2{fill:#ea8932;}.cls-3{fill:#b0e6e9;}.cls-4{fill:#d01b00;}.cls-5{font-size:43px;fill:#fff;font-family:BritannicBold, Britannic Bold;}</style></defs><title>hopital</title><rect class="cls-1" y="269" width="265" height="407"/><rect class="cls-1" x="735" y="269" width="265" height="407"/><rect class="cls-2" x="265" y="108" width="470" height="568"/><path class="cls-1" d="M483,149S527,41,718,41,953,149,953,149Z" transform="translate(-218 -41)"/><rect class="cls-3" x="311" y="209" width="95" height="134" rx="11.77" ry="11.77"/><rect class="cls-3" x="311" y="384" width="95" height="134" rx="11.77" ry="11.77"/><rect class="cls-3" x="453" y="384" width="95" height="134" rx="11.77" ry="11.77"/><rect class="cls-3" x="594" y="384" width="95" height="134" rx="11.77" ry="11.77"/><rect class="cls-3" x="453" y="209" width="95" height="134" rx="11.77" ry="11.77"/><rect class="cls-3" x="594" y="209" width="95" height="134" rx="11.77" ry="11.77"/><rect class="cls-3" x="25" y="345.42" width="55" height="77.58" rx="11.77" ry="11.77"/><rect class="cls-3" x="25" y="451.42" width="55" height="77.58" rx="11.77" ry="11.77"/><rect class="cls-3" x="105" y="451.42" width="55" height="77.58" rx="11.77" ry="11.77"/><rect class="cls-3" x="185" y="451.42" width="55" height="77.58" rx="11.77" ry="11.77"/><rect class="cls-3" x="105" y="345.42" width="55" height="77.58" rx="11.77" ry="11.77"/><rect class="cls-3" x="185" y="345.42" width="55" height="77.58" rx="11.77" ry="11.77"/><rect class="cls-3" x="760" y="334.42" width="55" height="77.58" rx="11.77" ry="11.77"/><rect class="cls-3" x="760" y="440.42" width="55" height="77.58" rx="11.77" ry="11.77"/><rect class="cls-3" x="840" y="440.42" width="55" height="77.58" rx="11.77" ry="11.77"/><rect class="cls-3" x="920" y="440.42" width="55" height="77.58" rx="11.77" ry="11.77"/><rect class="cls-3" x="840" y="334.42" width="55" height="77.58" rx="11.77" ry="11.77"/><rect class="cls-3" x="920" y="334.42" width="55" height="77.58" rx="11.77" ry="11.77"/><rect class="cls-4" x="488" y="19" width="26" height="77"/><rect class="cls-4" x="706" y="60" width="26" height="77" transform="translate(599.5 -661.5) rotate(90)"/><text class="cls-5" transform="translate(410.03 171.11)">HOSPITAL</text></svg>