<svg id="Calque_1" data-name="Calque 1" xmlns="http://www.w3.org/2000/svg" viewBox="0 0 132.36 601.01"><defs><style>.cls-1{fill:#ddd9da;}.cls-2{fill:#efefef;}</style></defs><title>os</title><path class="cls-1" d="M588.69,143.8s21.14-18.21,43.44,5.78c-1,13.12-.29,13.13-.29,13.13a10.64,10.64,0,0,0,1.3,4.18L633,173.8a2.55,2.55,0,0,0-1.43,2c0,1.39.5,9,.5,9s2.72,2.14-13.36,10.09c-5,7.49-10.82,20.51-10.82,20.51l-1.77,17.94L602,263,599.3,292.7l-1.24,57.36,1.16,42.2,4.6,43,7.74,57.56,2.21,25.64,2.68,36,.23,21.44L616,606.29l-.49,22.81,1.87,9s4.5,16,9.85,24.41c-.21,9.68-.84,6.9-.84,6.9l-3.7,11-.79,4.82-2.9,6.17-1.47,4.11s-2.86,4.09-9.85,7.4a71.72,71.72,0,0,1-5,6.8l-6.91-.15-2-1.42-4.14-.09-2.71-2.83s.81-5.51-5.38-7a58.38,58.38,0,0,0-11.75-.25l-4.9,2.66-4.32,8.2L554.85,717l-8.41,5.35s-26.48,9.11-41.1-18.17l.12-5.53-4.69-7,.17-7.6s4.7-25.48,28.86-23.58c13.13.29,22.76,2.57,29.37-15.27L563,627.27l-2-1.43-.59-4.85a7.66,7.66,0,0,0,3.59-6.15l.06-2.76s4.18-1.29,6.31-4c.06-2.77,1.73-15.87,1.73-15.87L574.52,575l.72-33.18,0-33.88-2.17-27.7-6.43-54.08-2.95-23.57-3.55-27.74-4.82-32.6L553,322.12l-1.77-13.87-.51-8.31-.38-14.53-1.59-22.16-3.66-22.9-4.45-18.07-2.49-12.5-4.6-11.16s-6-11.2-6.66-11.9-11-3-12.87-12a146.93,146.93,0,0,1,2.44-17.23s11.36-13.58,11.42-16.35c1.44-2.73,10.08-18.45,16.3-18.31l9.68.2s11,1.63,14.3,10a62.17,62.17,0,0,0,4.72,5.64s4,6.31,6.78,6.37A62.19,62.19,0,0,0,588.69,143.8Z" transform="translate(-500.77 -122.78)"/><path class="cls-2" d="M602.72,709.72a71.72,71.72,0,0,0,5-6.8c7-3.31,9.85-7.4,9.85-7.4l1.47-4.11,2.9-6.17.79-4.82,3.7-11s.63,2.78.84-6.9c-5.35-8.41-9.85-24.41-9.85-24.41l-1.87-9,.49-22.81.66-30.41-.23-21.44-2.68-36-2.21-25.64-7.74-57.56-4.6-43-1.16-42.2,1.24-57.36L602,263l4.1-29.64,1.77-17.94s5.82-13,10.82-20.51c16.08-8,13.36-10.09,13.36-10.09s-.53-7.61-.5-9a2.55,2.55,0,0,1,1.43-2s.07-3.45.15-6.91a10.64,10.64,0,0,1-1.3-4.18s-.69,0,.29-13.13c-22.3-24-43.44-5.78-43.44-5.78a62.19,62.19,0,0,1-9,1.19c-1.61,0-3.62-2.17-5-4l21.25,568.54Z" transform="translate(-500.77 -122.78)"/></svg>