<svg id="Calque_1" data-name="Calque 1" xmlns="http://www.w3.org/2000/svg" viewBox="0 0 921 543.74"><defs><style>.cls-1{fill:#ecf0f1;}.cls-2{fill:#d9dbdb;}.cls-3{fill:#2e2b32;}.cls-4{fill:#c0392b;}.cls-5{fill:#34495e;}.cls-6{fill:#f1c40f;}.cls-7{fill:#e74c3c;}.cls-8{fill:#3498db;}.cls-9{fill:#ddb305;}.cls-10{fill:#2c84b5;}</style></defs><title>tramway</title><rect class="cls-1" x="63.32" y="177.41" width="795.86" height="144.93"/><rect class="cls-2" x="63.32" y="176.16" width="795.86" height="43.73"/><path id="roue1" class="cls-3" d="M502.47,599.61s13.74,42.48,60,42.48,63.72-42.48,63.72-42.48Z" transform="translate(-228 -98.35)"/><path id="roue2" class="cls-3" d="M741.1,598.11s13.74,42.48,60,42.48,63.72-42.48,63.72-42.48Z" transform="translate(-228 -98.35)"/><path id="haut-toit" class="cls-4" d="M266.33,275.77S277.58,237,333.8,234.54s704.66-2.5,704.66-2.5,68.71,12.49,73.71,46.23C1065.94,278.27,266.33,275.77,266.33,275.77Z" transform="translate(-228 -98.35)"/><path class="cls-5" d="M1122.17,468.17a16.06,16.06,0,0,1,18.74,25l-6.25,5Q1128.41,483.16,1122.17,468.17Z" transform="translate(-228 -98.35)"/><path class="cls-5" d="M1135.85,499.78c1.08.16,7.75,1.27,11.3,7.13,4.31,7.1-.11,15.35-1.25,17.49-3.15,5.93-8.16,8.78-12.49,11.24a44.27,44.27,0,0,1-13.74,5Z" transform="translate(-228 -98.35)"/><path class="cls-5" d="M261.16,455.64s-16.07,0-18.57,11.28a12.79,12.79,0,0,0,1.25,10,13.17,13.17,0,0,0,8.38,5.76,11.55,11.55,0,0,0,2.75.14Z" transform="translate(-228 -98.35)"/><path class="cls-5" d="M253.84,483.17a54.83,54.83,0,0,0-10.47,4.21c-6,3.18-10.56,5.6-13.27,10.78-3.65,7-1.49,14.24-1.25,15,.12.4.23.67.41,1.12.65,1.68,3.34,8.23,10.83,16.37a76.13,76.13,0,0,0,11.25,10,60.15,60.15,0,0,1-.66-30.87,56.24,56.24,0,0,1,3.16-9.11Z" transform="translate(-228 -98.35)"/><path class="cls-4" d="M266.33,393.21a371.94,371.94,0,0,1-12.62,89.63c-.74,2.76-8,13.27-9.68,28.44-.71,6.5-1.61,14.7,2.31,23.11,4.76,10.22,11.9,10.64,19.63,21.2a52,52,0,0,1,9.11,22.53c2.88,9.2,8.68,22.55,21.24,31.24,22.85,15.81,51.43,1.22,94.37-1.39,24.47-1.49,55.3-2.9,94.29-3.61,28.92-.53,250.66-12.06,417.29,0,42.7,3.09,64.11,3.63,65,3.75,32.22,4.39,73.28,13.84,108.7,6.24,5.76-1.23,15-3.69,22.49-11.24,7.83-7.87,6.56-14,12.49-30,10.14-27.31,21.63-30.43,25-53.72,1.37-9.53.81-16.59.27-18.5-2.78-9.85-8.34-21.57-13.54-32.1-6.67-13.48-12.76-67.48-11.72-70.59l-3.75,136.18-837.09,1.25Z" transform="translate(-228 -98.35)"/><polygon class="cls-6" points="38.33 294.86 39.98 357.29 42.08 437.29 879.17 436.04 884.17 302.35 714.25 303.6 714.25 322.34 208.25 322.34 209.19 296.35 38.33 294.86"/><polygon class="cls-3" points="105.8 136.18 93.31 106.2 152.03 122.44 152.03 135.36 105.8 136.18"/><polygon class="cls-3" points="258.11 135.9 258.23 119.94 280.71 119.94 280.71 97.45 336.94 97.45 336.94 134.93 258.11 135.9"/><polygon class="cls-3" points="386.11 134.93 385.66 107.45 496.86 107.45 725.5 11.24 725.5 0 746.74 0 739.24 17.49 484.37 131.19 539.34 131.19 550.58 122.44 588.06 122.44 594.21 134.93 386.11 134.93"/><polygon class="cls-3" points="650.94 133.69 650.53 121.19 698.01 121.19 698.01 133.69 650.94 133.69"/><polygon class="cls-3" points="764.92 133.69 765.48 124.94 819.2 103.7 812.45 134.93 764.92 133.69"/><path class="cls-7" d="M502.47,287H461.24l-25,11.25V420.7h96.17l0-121.19ZM520,404.45H450v-50h70Zm0-71.21H450V310.75l20-7.5h36.23L520,309.5Z" transform="translate(-228 -98.35)"/><path class="cls-7" d="M604.67,287H563.44l-25,11.25V420.7h96.17l0-121.19Zm17.49,117.44h-70v-50h70Zm0-71.21h-70V310.75l20-7.5h36.23l13.75,6.25Z" transform="translate(-228 -98.35)"/><path class="cls-7" d="M709.12,287H667.89l-25,11.25V420.7h96.17l0-121.19Zm17.49,117.44h-70v-50h70Zm0-71.21h-70V310.75l20-7.5h36.23l13.75,6.25Z" transform="translate(-228 -98.35)"/><path class="cls-7" d="M812.81,287H771.58l-25,11.25V420.7h96.17l0-121.19Zm17.5,117.44h-70v-50h70Zm0-71.21h-70V310.75l20-7.5h36.23l13.75,6.25Z" transform="translate(-228 -98.35)"/><path class="cls-7" d="M916,287H874.79l-25,11.25V420.7H946l0-121.19Zm17.49,117.44h-70v-50h70Zm0-71.21h-70V310.75l20-7.5h36.23l13.75,6.25Z" transform="translate(-228 -98.35)"/><rect class="cls-7" x="38.33" y="177.41" width="24.99" height="117.44"/><rect class="cls-7" x="859.18" y="179.91" width="24.99" height="122.44"/><rect class="cls-8" x="221.99" y="256.13" width="69.97" height="49.98"/><rect class="cls-8" x="324.19" y="256.13" width="69.97" height="49.98"/><rect class="cls-8" x="428.64" y="256.13" width="69.97" height="49.98"/><rect class="cls-8" x="532.34" y="256.13" width="69.97" height="49.98"/><rect class="cls-8" x="635.54" y="256.13" width="69.97" height="49.98"/><polygon class="cls-8" points="221.99 234.89 221.99 212.4 241.98 204.9 278.21 204.9 291.96 211.15 291.96 234.89 221.99 234.89"/><polygon class="cls-8" points="324.19 234.89 324.19 212.4 344.18 204.9 380.41 204.9 394.16 211.15 394.16 234.89 324.19 234.89"/><polygon class="cls-8" points="428.64 234.89 428.64 212.4 448.63 204.9 484.86 204.9 498.61 211.15 498.61 234.89 428.64 234.89"/><polygon class="cls-8" points="532.34 234.89 532.34 212.4 552.33 204.9 588.56 204.9 602.31 211.15 602.31 234.89 532.34 234.89"/><polygon class="cls-8" points="635.54 234.89 635.54 212.4 655.53 204.9 691.76 204.9 705.51 211.15 705.51 234.89 635.54 234.89"/><polygon class="cls-9" points="879.17 437.29 42.08 437.29 39.58 357.33 881.67 357.33 879.17 437.29"/><rect class="cls-10" x="221.99" y="256.13" width="34.98" height="49.98"/><rect class="cls-10" x="322.94" y="256.13" width="34.98" height="49.98"/><rect class="cls-10" x="428.64" y="256.13" width="34.98" height="49.98"/><rect class="cls-10" x="532.34" y="256.13" width="34.98" height="49.98"/><rect class="cls-10" x="635.54" y="256.13" width="34.98" height="49.98"/><polygon id="vitre-haut-5" class="cls-10" points="256.98 234.89 221.99 234.89 221.99 212.4 241.98 204.9 256.98 204.9 256.98 234.89"/><polygon id="vitre-haut-4" class="cls-10" points="357.92 234.89 322.94 234.89 322.94 212.4 342.93 204.9 357.92 204.9 357.92 234.89"/><polygon id="vitre-haut-3" class="cls-10" points="463.62 234.89 428.64 234.89 428.64 212.4 448.63 204.9 463.62 204.9 463.62 234.89"/><polygon id="vitre-haut-2" class="cls-10" points="567.32 234.89 532.34 234.89 532.34 212.4 552.33 204.9 567.32 204.9 567.32 234.89"/><polygon id="vitre-haut-1" class="cls-10" points="670.52 234.89 635.54 234.89 635.54 212.4 655.53 204.9 670.52 204.9 670.52 234.89"/></svg>